<svg width="448" height="448" viewBox="0 0 448 448" fill="none" xmlns="http://www.w3.org/2000/svg">
<g clip-path="url(#clip0_8_45)">
<rect width="448" height="448" fill="#308462"/>
<path d="M245.25 73.2927C245.25 79.5989 242.514 85.2647 238.167 89.1635V115.878H309C332.473 115.878 351.5 134.944 351.5 158.463V300.415C351.5 323.935 332.473 343 309 343H139C115.528 343 96.5 323.935 96.5 300.415V158.463C96.5 134.944 115.528 115.878 139 115.878H209.833V89.1635C205.486 85.2647 202.75 79.5989 202.75 73.2927C202.75 61.533 212.264 52 224 52C235.736 52 245.25 61.533 245.25 73.2927ZM139 144.268C131.176 144.268 124.833 150.624 124.833 158.463V300.415C124.833 308.255 131.176 314.61 139 314.61H309C316.824 314.61 323.167 308.255 323.167 300.415V158.463C323.167 150.624 316.824 144.268 309 144.268H238.167H209.833H139ZM82.3333 186.854H54V272.024H82.3333V186.854ZM365.667 186.854H394V272.024H365.667V186.854ZM181.5 250.732C193.236 250.732 202.75 241.198 202.75 229.439C202.75 217.68 193.236 208.146 181.5 208.146C169.764 208.146 160.25 217.68 160.25 229.439C160.25 241.198 169.764 250.732 181.5 250.732ZM266.5 250.732C278.236 250.732 287.75 241.198 287.75 229.439C287.75 217.68 278.236 208.146 266.5 208.146C254.764 208.146 245.25 217.68 245.25 229.439C245.25 241.198 254.764 250.732 266.5 250.732Z" fill="white"/>
</g>
<defs>
<clipPath id="clip0_8_45">
<rect width="448" height="448" fill="white"/>
</clipPath>
</defs>
</svg>
