<svg width="36" height="36" viewBox="0 0 36 36" fill="none" xmlns="http://www.w3.org/2000/svg">
<path d="M10.7909 26.3333L5 31V6.33333C5 5.59696 5.58204 5 6.3 5H29.7C30.418 5 31 5.59696 31 6.33333V25C31 25.7364 30.418 26.3333 29.7 26.3333H10.7909ZM9.89167 23.6667H28.4V7.66667H7.6V25.5135L9.89167 23.6667ZM11.5 14.3333H14.1C14.1 16.5425 15.846 18.3333 18 18.3333C20.154 18.3333 21.9 16.5425 21.9 14.3333H24.5C24.5 18.0152 21.5898 21 18 21C14.4102 21 11.5 18.0152 11.5 14.3333Z" fill="white"/>
</svg>
