<svg width="28" height="28" viewBox="0 0 28 28" fill="none" xmlns="http://www.w3.org/2000/svg">
<path d="M7.72548 22.3441L2.71411 26.2816V5.46906C2.71411 4.84774 3.2178 4.34406 3.83911 4.34406H24.0891C24.7104 4.34406 25.2141 4.84774 25.2141 5.46906V21.2191C25.2141 21.8404 24.7104 22.3441 24.0891 22.3441H7.72548ZM6.94728 20.0941H22.9641V6.59406H4.96411V21.6523L6.94728 20.0941ZM8.33911 12.2191H10.5891C10.5891 14.0831 12.1001 15.5941 13.9641 15.5941C15.8281 15.5941 17.3391 14.0831 17.3391 12.2191H19.5891C19.5891 15.3256 17.0707 17.8441 13.9641 17.8441C10.8575 17.8441 8.33911 15.3256 8.33911 12.2191Z" fill="white"/>
</svg>
