<svg width="448" height="448" viewBox="0 0 448 448" fill="none" xmlns="http://www.w3.org/2000/svg">
<g clip-path="url(#clip0_8_51)">
<rect width="448" height="448" fill="#FE5523"/>
<path d="M224 394C130.112 394 54 317.888 54 224C54 130.112 130.112 54 224 54C317.888 54 394 130.112 394 224C394 317.888 317.888 394 224 394ZM224 360C299.111 360 360 299.111 360 224C360 148.889 299.111 88 224 88C148.889 88 88 148.889 88 224C88 299.111 148.889 360 224 360ZM156 241H292C292 278.555 261.555 309 224 309C186.445 309 156 278.555 156 241Z" fill="white"/>
</g>
<defs>
<clipPath id="clip0_8_51">
<rect width="448" height="448" fill="white"/>
</clipPath>
</defs>
</svg>
