<svg width="512" height="512" viewBox="0 0 512 512" fill="none" xmlns="http://www.w3.org/2000/svg">
<path d="M87.48 380C88.68 375.62 86.05 369.53 83.54 365.14C82.7619 363.829 81.914 362.56 81 361.34C59.4727 328.693 47.9986 290.446 48 251.34C47.64 139.09 140.72 48 255.82 48C356.2 48 440 117.54 459.57 209.85C462.507 223.536 463.992 237.493 464 251.49C464 363.9 374.51 456.42 259.41 456.42C241.1 456.42 216.41 451.82 202.94 448.05C189.47 444.28 176.02 439.28 172.55 437.94C168.998 436.576 165.225 435.874 161.42 435.87C157.27 435.855 153.161 436.682 149.34 438.3L81.5 462.78C80.0175 463.421 78.4462 463.832 76.84 464C75.5695 463.996 74.3124 463.74 73.1414 463.248C71.9704 462.755 70.9087 462.035 70.0178 461.129C69.1269 460.223 68.4244 459.15 67.9511 457.971C67.4777 456.792 67.2428 455.53 67.26 454.26C67.3434 453.145 67.5445 452.042 67.86 450.97L87.48 380Z" stroke="white" stroke-width="32" stroke-miterlimit="10" stroke-linecap="round"/>
<path d="M160 288C177.673 288 192 273.673 192 256C192 238.327 177.673 224 160 224C142.327 224 128 238.327 128 256C128 273.673 142.327 288 160 288Z" fill="white"/>
<path d="M256 288C273.673 288 288 273.673 288 256C288 238.327 273.673 224 256 224C238.327 224 224 238.327 224 256C224 273.673 238.327 288 256 288Z" fill="white"/>
<path d="M352 288C369.673 288 384 273.673 384 256C384 238.327 369.673 224 352 224C334.327 224 320 238.327 320 256C320 273.673 334.327 288 352 288Z" fill="white"/>
</svg>
